<svg width="567.295" height="642.725" viewBox="0 0 567.295 642.725"
   xmlns="http://www.w3.org/2000/svg">
   <path style="fill:#000"
      d="M1139.377 951.367c-.976-3.888.265-29.087 2.11-42.867 3.495-26.094 10.406-44.283 23.925-62.96 4.732-6.538 6.206-9.295 5.454-10.202-.567-.683-.739-2.164-.381-3.29 1.17-3.686-2.26-2.31-3.621 1.452-.851 2.354-1.898 3.5-3.196 3.5-1.647 0-1.847-.513-1.362-3.5.49-3.017.294-3.5-1.42-3.5-1.355 0-2.483 1.195-3.541 3.75-2.209 5.33-3.325 6.512-4.91 5.196-1.064-.883-1.043-1.805.112-5.08 1.365-3.868 1.342-3.99-.69-3.683-1.456.22-2.609 1.696-3.755 4.808-1.884 5.12-5.102 6.79-5.102 2.647 0-1.38.439-3.662.975-5.073.815-2.144.69-2.565-.763-2.565-1.24 0-2.166 1.504-3.233 5.25-.945 3.32-2.043 5.25-2.987 5.25-1.639 0-1.953-4.003-.687-8.75.555-2.083.377-2.75-.732-2.75-.882 0-2.34 2.4-3.665 6.03-2.378 6.524-3.471 7.807-5.188 6.09-.808-.808-.657-2.511.561-6.32 1.292-4.04 1.392-5.389.443-5.992-2.194-1.394-2.58-.898-4.902 6.314-2.238 6.948-3.998 9.102-5.89 7.21-.58-.58-.132-3.313 1.177-7.19 1.162-3.44 1.95-6.411 1.752-6.603-.199-.192-1.225-.504-2.28-.694-1.566-.281-2.517 1.133-5.147 7.655-1.902 4.716-3.884 8.133-4.83 8.323-2.291.462-2.045-2.605.818-10.212 1.332-3.539 2.157-6.699 1.833-7.022s-1.597-.589-2.83-.589c-1.901 0-2.812 1.439-5.983 9.45-2.057 5.198-4.365 9.69-5.129 9.983-2.72 1.044-2.507-2.621.636-10.95 1.754-4.648 2.907-8.908 2.561-9.467-1.544-2.497-3.344-.197-8.028 10.261-3.24 7.232-5.633 11.32-6.75 11.536-2.755.53-2.136-2.601 2.705-13.668 4.35-9.947 4.392-10.145 2.147-10.145-1.957 0-3.055 1.706-7.56 11.75-5.894 13.143-7.37 15.305-9.198 13.476-.917-.917-.208-3.414 3.11-10.957 7.928-18.026 7.406-16.271 4.827-16.251-1.963.015-3.01 1.837-7.896 13.75-3.585 8.739-6.222 13.85-7.25 14.055-2.73.546-1.92-3.382 3.383-16.42 2.75-6.76 5-12.54 5-12.847 0-.306-.66-.556-1.468-.556-.886 0-4.454 5.897-9.013 14.898-7.175 14.164-9.93 17.799-11.129 14.676-.294-.766 2.655-8.04 6.553-16.165 6.95-14.486 7.353-16.346 3.557-16.39-.55-.006-4.96 7.862-9.798 17.485-8.073 16.054-10.46 19.315-12.142 16.593-.307-.497 3.292-8.667 7.998-18.156 8.639-17.42 8.998-18.95 4.442-18.891-.907.012-5.981 8.112-12.833 20.485-8.618 15.562-11.792 20.465-13.25 20.465-1.054 0-1.917-.522-1.917-1.16s4.95-10.116 11-21.063 11-20.276 11-20.731c0-1.191-5.133-2.313-6.11-1.335-.452.451-5.83 10.264-11.951 21.805s-11.969 21.854-12.995 22.917c-1.81 1.876-1.887 1.878-2.582.067-.482-1.254.573-4.345 3.218-9.433a30561 30561 0 0 1 11.909-22.865c6.623-12.704 7.723-15.456 6.493-16.234-.815-.514-1.924-.795-2.464-.624-.54.17-2.81 5.238-5.043 11.26-11.794 31.809-29.149 56.904-52.147 75.405-8.702 7.001-19.962 13.768-24.38 14.651-5.41 1.082-3.275-2.669 3.788-6.655 3.416-1.928 6.223-3.771 6.237-4.096.065-1.425-10.424-6.087-15.583-6.927-6.743-1.097-7.206-1.446-5.518-4.15 1.89-3.025 4.113-10.864 4.065-14.332l-.042-3-1.647 2.5c-.906 1.375-4.63 5.537-8.275 9.25-7.673 7.814-7.23 7.724-23.548 4.777-13.286-2.4-20.149-4.429-23.321-6.894l-2.396-1.862 2.14-7.931c2.667-9.885 3.567-18.644 2.444-23.794l-.863-3.955-2.603 4.455c-3.407 5.827-4.814 11.14-4.82 18.204-.004 4.06-.39 5.75-1.311 5.75-2.068 0-20.545-12.906-31.153-21.761-5.896-4.921-12.197-9.177-16.112-10.883-7.352-3.203-7.877-4.607-3.338-8.919 3.12-2.965 5.306-6.617 8.34-13.937l1.659-4-5.796 5.657c-7.848 7.66-16.671 13.107-24.793 15.305-8.097 2.192-12.805 1.393-15.833-2.688-1.82-2.451-1.871-2.904-.514-4.5 6.003-7.057 17.243-50.247 23.358-89.749A9701 9701 0 0 1 822.37 689c5.198-32.415 8.306-57.144 11.625-92.5 1.652-17.6 3.469-34.925 4.036-38.5 2.218-13.976 6.163-33.855 8.13-40.969 3.024-10.932 13.265-38.653 19.592-53.031 26.67-60.608 53.434-91.138 106.247-121.188 16.937-9.638 20.442-11.259 32-14.8 23.309-7.14 43.3-4.43 54.36 7.37 8.753 9.337 20.248 24.343 19.342 25.25-.284.283-1.939-.22-3.678-1.12-7.81-4.038-24.38-5.166-28.766-1.959-2.862 2.093-.722 2.758 4.695 1.458 9.598-2.302 28.334 3.29 32.884 9.816 4.466 6.405 17.297 31.238 19.207 37.173 1.151 3.575 4.313 11.75 7.026 18.165l4.933 11.666-.973 9.334c-2.613 25.068-10.555 40.786-30.483 60.335-11.744 11.52-18.734 16.465-40.547 28.683-21.027 11.778-31.658 19.37-43.077 30.764-11.538 11.513-20.841 23.423-28.34 36.282-11.836 20.298-28.44 43.776-34.853 49.28-2.327 1.997-7.258 5.099-10.96 6.893l-6.73 3.262 2.98 2.855c3.072 2.944 3.982 6.481 1.667 6.481-.722 0-2.635-1.391-4.25-3.092-6.293-6.624-16.141-9.144-26.982-6.905-12.366 2.555-21.07 9.591-23.978 19.385-2.214 7.457-1.973 24.857.442 31.877 2.53 7.353 7.576 15.01 14.2 21.545 6.553 6.466 12.847 10.176 23.381 13.78 6.881 2.355 9.678 2.75 20 2.824 10.507.075 12.635-.201 17.099-2.222 2.804-1.27 7.025-4.27 9.379-6.67 4.19-4.27 7.022-4.96 7.022-1.713 0 .878-1.436 3.078-3.192 4.889l-3.191 3.293 2.941 3.127c5.305 5.64 24.731 21.078 35.442 28.165 21.459 14.2 64.253 32.113 90.475 37.872 32.824 7.208 49.773 8.998 85.201 8.997 50.444 0 61.268-2.628 85.25-20.694 13.102-9.87 33.196-30.877 39.363-41.153 6.384-10.637 14.378-28.733 16.86-38.165 3.627-13.787 3.396-33.256-.708-59.763l-.484-3.123-6.409 3.403c-9.25 4.912-16.269 7.085-28.896 8.948-13.168 1.942-25.7 1.415-36.152-1.521-4.487-1.26-7.131-1.594-7.366-.928-1.252 3.555-7.467 8.448-16.008 12.603-8.758 4.26-10.227 4.664-17.103 4.7-5.97.033-7.523-.263-7.523-1.428 0-1.05 2.125-1.826 7.43-2.714 8.612-1.442 13.557-3.237 20.679-7.506 5.807-3.481 8.391-7.145 8.391-11.9 0-6.416-3.965-12.181-21.45-31.183l-7.292-7.925-6.629 1.032c-3.645.568-8.954 2.088-11.796 3.377l-5.168 2.345.234 12.472c.273 14.6-1.395 24.16-5.892 33.77-7.999 17.093-24.031 32.702-42.435 41.314-7.151 3.347-23.832 6.887-32.447 6.887-17.97 0-37.889-10.09-51.747-26.215-5.265-6.126-13.473-22.382-16.05-31.785-2.766-10.102-2.468-31.13.584-41 6.777-21.924 22.57-39.46 45.428-50.445 11.233-5.397 17.94-6.826 32.16-6.852 12.9-.023 20.68 1.694 31.375 6.924 13.626 6.662 25.95 21.625 33.811 41.05 4.173 10.31 3.909 9.902 5.54 8.556 2.027-1.673 13.417-5.233 16.742-5.233 1.668 0 3.032-.262 3.032-.582s-1.475-3.132-3.277-6.25c-4.366-7.552-13.022-26.352-15.198-33.008-1.28-3.913-1.449-5.636-.635-6.45 1.605-1.605 2.434-.376 6.605 9.79 2.031 4.95 6.463 14.4 9.849 21l6.156 12 .23-6.5c.503-14.166 2.478-28.767 4.846-35.822q7.789-23.205 32.84-35.282c12.66-6.104 19.236-7.804 33.084-8.552 18.9-1.022 33.377 3.058 46.397 13.076l5.857 4.508 1.118-5.714c.615-3.143 1.415-8.639 1.777-12.214.506-4.99 1.205-7.012 3.005-8.702 2.002-1.88 2.346-3.17 2.346-8.804 0-10.756-7.726-34.532-12.512-38.504-2.996-2.486-2.712.04.812 7.228 3.388 6.91 7.936 21.179 9.176 28.782.781 4.794-.662 9.5-2.913 9.5-1.185 0-3.024-2.278-5.428-6.723-5.21-9.636-12.281-18.19-18.389-22.245-6.53-4.336-20.856-8.156-59.746-15.93-15.125-3.025-31.55-6.38-36.5-7.459-45.267-9.859-78.158-26.831-87.507-45.156-1.11-2.177-4.08-8.802-6.6-14.722s-6.184-13.975-8.14-17.9l-3.559-7.134 2.19-3.544c2.572-4.161 9.164-7.687 14.373-7.687 3.42 0 5.665-1.411 4.346-2.73-1.188-1.188-8.89-.235-12.951 1.6-2.284 1.033-5.57 3.295-7.303 5.026l-3.152 3.149-3.598-6.435c-1.98-3.54-3.599-6.72-3.599-7.068 0-1.19-9.72-15.037-15.474-22.042-7.838-9.542-8.246-10.853-4.888-15.7 3.477-5.016 10.703-11.05 17.061-14.243 10.903-5.476 20.987-5.704 42.163-.955 11.865 2.661 49.634 15.63 65.349 22.44 17.877 7.746 50.58 27.182 64.789 38.504 18.475 14.721 34.91 33.686 51.216 59.097 15.692 24.453 29.23 52.476 37.131 76.857 6.765 20.873 11 67.616 8.517 94-.518 5.5-2.697 18.775-4.843 29.5-4.7 23.491-4.454 21.818-7.5 51-3.504 33.585-4.736 57.06-4.878 93-.101 25.367.221 33.934 1.655 44 3.912 27.469 6.787 37.321 16.361 56.067 3.53 6.911 6.149 13.211 5.82 14-.918 2.19-10.996 10.14-16.25 12.816-2.74 1.396-7.175 2.584-10.705 2.867-5.6.45-8.292-.194-14.774-3.53-.412-.213-.75.94-.75 2.562 0 3.441-3.018 7.659-6.928 9.68-1.513.783-5.861 1.954-9.662 2.601-9.252 1.577-12.446 3.007-17.859 7.997-3.027 2.79-5.908 4.457-8.533 4.937-2.18.398-3.745.37-3.477-.064s-.396-1.07-1.477-1.413-2.993-2.288-4.25-4.322c-1.932-3.124-2.344-3.388-2.658-1.698-.57 3.07-2.219 4.616-7.576 7.1-5.36 2.487-6.918 2.423-17.435-.708-7.239-2.155-14.18-2.456-15.945-.692-2.11 2.11-3.062-.4-3.295-8.7-.333-11.843-.412-11.984-4.762-8.53-6.019 4.782-28.272 16.72-34.583 18.555-7.944 2.31-13.879 1.466-23.915-3.4-4.472-2.168-8.472-3.732-8.888-3.475s-.757 6.03-.757 12.827c0 6.798-.273 13.071-.607 13.941-.948 2.47-3.286 1.858-4.016-1.051m163.193-85.617c-3.014-10.225-5.595-22.327-7.143-33.49-1.91-13.77-1.958-12.664 1.287-29.637.412-2.153.205-2.763-.82-2.42-2.118.705-4.765 10.557-4.833 17.986-.099 10.824 5.752 41.788 9.08 48.061 1.366 2.573 3.222 2.19 2.43-.5M1177 831.5c.718-.865.815-1.5.23-1.5-.56 0-1.275.675-1.592 1.5-.316.825-.42 1.5-.23 1.5.191 0 .907-.675 1.592-1.5m-65.361-111.384c19.906-5.47 40.074-22.216 48.81-40.528 2.384-4.998 4.798-11.113 5.363-13.588 1.601-7.004 2.475-19.343 1.696-23.953-.656-3.883-.828-4.067-2.436-2.612-4.306 3.897-6.057.757-2.094-3.757 1.662-1.893 3.02-4.058 3.017-4.81-.01-2.362-8.418-20.068-12.844-27.043-7.8-12.293-20.496-21.928-34.178-25.94-2.741-.803-9.892-1.314-18.473-1.32-12.677-.01-14.699.243-21.394 2.663-16.33 5.901-32.846 18.62-42.048 32.378-7.914 11.832-12.828 29.979-11.582 42.769 3.25 33.355 24.207 59.74 53.332 67.145 7.438 1.891 23.308 1.212 32.83-1.404m-49.096-20.046c-.634-1.027 10.804-33.817 12.329-35.342 1.27-1.27 3.13-.032 3.123 2.081 0 1.544-2.699 9.24-9.608 27.441-2.353 6.2-4.368 8.207-5.844 5.82m10.937-4.102c-.35-.568 1.928-7.768 5.065-16 4.551-11.944 6.082-14.968 7.58-14.968 2.8 0 2.39 2.089-3.242 16.45-6.058 15.447-7.476 17.636-9.403 14.518m13.075-4.88c-.731-1.182 8.346-27.358 9.821-28.323 4.752-3.106 3.874 1.851-3.981 22.485-2.354 6.183-4.377 8.206-5.84 5.838m11.874-2.412c-.648-1.69 8.177-26.695 10.106-28.633 1.08-1.086 1.74-1.168 2.584-.324s-.091 4.531-3.664 14.457c-2.638 7.328-5.224 13.886-5.748 14.574-1.236 1.624-2.639 1.592-3.278-.074m-42.084-30.22c-.822-2.141-.37-2.412 6.814-4.073 9.472-2.192 10.341-2.182 10.341.117 0 3.796-15.817 7.445-17.155 3.957m29.398-9.046c-1.52-1.52-.64-7.047 1.799-11.314 2.473-4.327 2.484-4.441.637-6.5-4.468-4.98-2.415-9.045 2.321-4.596 1.343 1.262 3.066 1.997 3.916 1.67 1.284-.492 1.14-1.245-.937-4.876-2.956-5.17-3.302-9.805-.729-9.77 1.134.015 2.537 1.814 3.987 5.112 1.818 4.135 2.567 4.946 4 4.33 5.436-2.336 18.128-5.466 22.166-5.466 6.376 0 15.817 2.574 20.32 5.54 6.084 4.008 8.378 10.802 3.942 11.673-.916.18-5.265-.03-9.665-.464-16.389-1.621-30.895 2.058-40.696 10.32-4.59 3.87-9.575 5.826-11.06 4.34m188.165 20.056c9.893-1.604 21.17-5.596 28.015-9.918 4.651-2.935 4.561-2.39 2.98-18.098-1.437-14.277-.167-26.192 5.482-51.45 2.398-10.725 4.936-22.627 5.639-26.45l1.278-6.95-5.271-4.846c-12.629-11.612-30.987-16.301-52.175-13.327-30.868 4.333-52.796 23.114-57.333 49.106-.766 4.388-1.535 14.003-1.708 21.367l-.315 13.389 4 1.137c2.926.833 4 1.666 4 3.106 0 1.579-.576 1.906-2.913 1.655-2.764-.298-2.533.102 4.5 7.809 14.547 15.94 18.838 22.248 18.891 27.779.025 2.587 2.22 3.68 11.522 5.739 8.178 1.809 22.081 1.79 33.408-.048m-43.423-15.491c-.96-1.552 8.386-28.712 10.107-29.372 2.965-1.138 2.673 2.915-1.031 14.302-4.765 14.646-7.022 18.394-9.076 15.07m11.888-2.446c-.69-1.797 4.397-19.112 7.28-24.779 1.716-3.374 4.347-3.644 4.347-.447s-7.538 23.663-9.402 25.527c-1.366 1.367-1.597 1.335-2.225-.301m11.034-1.912c-.723-1.884 6.182-23.031 8.018-24.555.954-.792 1.584-.744 2.322.176.713.889-.21 4.791-3.118 13.198-3.96 11.45-5.942 14.517-7.222 11.181m11.962-2.098c-.529-1.378 1.603-8.777 5.84-20.269 1.418-3.849 2.45-5.25 3.863-5.25 1.06 0 1.928.59 1.928 1.312 0 1.15-3.514 11.905-6.978 21.358-1.296 3.535-3.801 5.069-4.653 2.849m-49.702-28.186c-2.832-2.831 2.28-14.14 9.406-20.804 7.85-7.342 12.485-9.029 24.819-9.029h10.391l1.607-3.5c1.746-3.804 3.067-5.144 4.312-4.375 1.324.818.897 5.861-.67 7.934-1.725 2.28-1.913 3.441-.558 3.441.536 0 1.688-1.379 2.559-3.064s2.12-2.885 2.776-2.667c1.741.58 2.07 3.655.67 6.271-1.054 1.97-.874 2.732 1.332 5.623 3.883 5.091 5.082 8.873 3.358 10.596-1.216 1.217-2 1.113-5.652-.75-2.331-1.19-7.295-2.8-11.03-3.579-11.019-2.297-19.17.161-33.853 10.212-6.256 4.282-8.141 5.017-9.467 3.691m69-14.757c-.643-1.678 1.182-3.174 7.492-6.14 3.801-1.787 7.306-1.354 6.6.815-.483 1.486-7.179 5.335-10.873 6.25-1.883.466-2.784.207-3.218-.925m29.153 50.89c5.15-5.85 11.51-16.407 15.26-25.334 6.307-15.011 6.412-37.881.26-56.572-2.54-7.716-8.18-19.56-9.315-19.56-1.556 0-1.277 1.25 1.815 8.157 7.273 16.24 9.67 28.495 8.872 45.363-.488 10.345-1.037 13.386-3.623 20.085-3.501 9.068-10.748 21.276-15.695 26.437-3.296 3.44-4.344 5.958-2.479 5.958.503 0 2.71-2.04 4.905-4.533m-420.628-11.34c-.607-12.697 1.677-22.563 9.984-43.126 12.42-30.742 19.96-52.156 20.56-58.384.459-4.768.3-5.795-.833-5.417-.806.269-1.708 2.609-2.127 5.52-.4 2.78-1.89 8.143-3.31 11.918a964 964 0 0 0-5.411 14.863c-1.556 4.4-6.233 16.55-10.394 27-4.16 10.45-8.28 21.7-9.154 25-2.075 7.83-3.06 25.13-1.637 28.75 1.957 4.98 2.752 2.882 2.322-6.123m-22.794-103.665c1.767-16.326 13.069-50.859 23.223-70.961 15.25-30.194 42.282-63.004 63.599-77.195 9.118-6.07 12.188-9.168 8-8.073-5.41 1.415-19.83 12.69-31.341 24.509-26.675 27.386-43.914 55.545-56.258 91.9-7.263 21.387-12.256 45.39-9.926 47.72 1.123 1.124 2.004-1.452 2.703-7.9m137.403-18.744c2.224-5.027 5.763-8.206 15.403-13.836 12.318-7.194 31.133-20.56 35.974-25.554 4.887-5.042 18.822-27.087 18.822-29.776 0-2.283-1.756-1.887-3.095.699-3.978 7.68-15.419 24.837-18.614 27.914-4.358 4.196-26.459 19.564-36.791 25.583-3.85 2.243-8.186 5.355-9.636 6.915-3.003 3.233-5.864 8.497-5.864 10.788 0 2.92 1.907 1.55 3.801-2.733m253.642-74.778c-6.755-7.056-21.61-11.914-36.483-11.931-8.437-.01-16.886-2.242-24.675-6.519-6.747-3.705-9.327-3.148-4.053.875 7.045 5.373 18.152 8.624 29.567 8.653 13.246.035 24.738 3.712 32.737 10.475 4.926 4.166 7.213 2.944 2.907-1.553m-72.146 310.973c-9.852-.928-17.477-2.8-28.115-6.902-12.795-4.934-27.182-16.095-27.182-21.087 0-2.391 1.634-2.431 12.922-.314 10.797 2.024 37.75 1.435 49.078-1.074 20.345-4.505 41.445-13.371 58.703-24.668 7.45-4.877 13.885-8.867 14.3-8.867.413 0 1.35.721 2.082 1.603 1.134 1.365.826 2.576-2.084 8.188-3.984 7.684-8.679 14.74-14.38 21.616-5.011 6.042-20.36 19.8-27.687 24.817-8.616 5.9-21.569 8.201-37.637 6.688m-2.263-16.416c27.32-3.604 51.75-13.352 68.764-27.438 3.617-2.995 8.202-8.946 8.202-10.646 0-.261-4.648 2.673-10.33 6.52-11.279 7.636-13.457 8.69-32.977 15.959-20.538 7.647-30.847 9.58-51.193 9.596-9.35.007-19.25-.312-22-.71l-5-.723 3 2.526c6.41 5.397 9.34 6.329 20.064 6.376 5.534.024 15.196-.633 21.47-1.46m-273.93-17.06c-7.05-6.527-13.97-19.069-14.855-26.922l-.53-4.699-4.61.643c-2.535.354-6.071.895-7.859 1.204-2.802.483-3.25.275-3.25-1.512 0-1.591.987-2.34 4.25-3.225 5.89-1.596 22.08-1.299 29.007.532 7.491 1.98 17.743 7.179 17.743 8.998 0 2.616-1.722 2.546-8.136-.333-5.866-2.632-11.05-4.09-19.725-5.55l-3.36-.566.679 3.747c1.66 9.16 9.54 21.894 16.554 26.755 4.116 2.853 4.945 5.684 1.84 6.282-.895.172-4.381-2.237-7.748-5.355M1159 718.468c0-3.036 2.584-4.314 4.614-2.283 2 1.999.7 4.814-2.221 4.814-1.894 0-2.393-.528-2.393-2.531m122.985-36.489c-3.94-4.974-3.54-7.835.782-5.6 3.263 1.687 5.763 5.798 4.897 8.053-.94 2.45-2.243 1.887-5.68-2.453M1015 589.338c0-3.088 6.146-11.267 14.06-18.713 9.143-8.6 23.521-16.593 35.173-19.552 7.663-1.946 10.052-1.771 9.566.701-.186.947-2.906 2.237-7.191 3.41-19.112 5.232-37.167 17.652-45.999 31.643-2.67 4.231-5.609 5.546-5.609 2.51m273.357-69.402c-10.423-4.827-29.795-6.309-44.031-3.368-5.66 1.169-7.875 1.279-8.708.432-3.25-3.3 10.183-6.521 26.882-6.446 9.248.041 13.799.562 19.843 2.272 10.084 2.853 13.873 4.815 13.458 6.97-.45 2.34-2.607 2.38-7.444.14"
      transform="translate(-791.211 -311.232)" />
</svg>